<?xml version="1.0" standalone="no"?>
<!DOCTYPE svg PUBLIC "-//W3C//DTD SVG 20010904//EN"
 "http://www.w3.org/TR/2001/REC-SVG-20010904/DTD/svg10.dtd">
<svg version="1.0" xmlns="http://www.w3.org/2000/svg"
 width="700.000000pt" height="700.000000pt" viewBox="0 0 700.000000 700.000000"
 preserveAspectRatio="xMidYMid meet">
<metadata>
Created by potrace 1.11, written by Peter Selinger 2001-2013
</metadata>
<g transform="translate(0.000000,700.000000) scale(0.100000,-0.100000)"
fill="#000000" stroke="none">
<path d="M711 5888 c-3 -9 -4 -46 -3 -82 l4 -66 2789 0 c2472 0 2789 2 2790
15 0 8 0 40 0 70 0 30 0 61 0 68 -1 9 -564 12 -2787 12 -2597 0 -2787 -1
-2793 -17z"/>
<path d="M710 5493 l0 -83 2790 0 c2783 0 2790 0 2791 20 0 11 0 45 0 75 0 30
0 59 0 63 -1 5 -1256 8 -2791 8 l-2790 0 0 -83z"/>
<path d="M1590 5233 c-251 -43 -508 -193 -645 -378 -17 -22 -33 -42 -37 -45
-17 -13 -100 -171 -128 -243 -52 -137 -73 -263 -67 -412 3 -71 8 -143 12 -160
79 -387 340 -693 691 -813 170 -58 387 -72 561 -36 450 93 767 439 828 904 7
51 6 246 0 272 l-6 23 -532 0 -532 0 -1 -138 -1 -137 379 0 378 0 -4 -44 c-33
-315 -277 -558 -606 -601 -46 -6 -188 -6 -220 0 -82 16 -133 31 -195 60 -183
84 -322 244 -393 450 -28 82 -33 115 -38 225 -14 345 213 674 527 764 82 23
116 28 209 27 214 -1 423 -107 550 -279 13 -17 28 -32 33 -32 4 0 62 41 128
91 l119 91 -20 29 c-30 41 -127 135 -190 184 -119 91 -293 167 -450 196 -90
16 -260 18 -350 2z"/>
<path d="M5838 5245 c-2 -2 -28 -6 -58 -9 -266 -31 -545 -203 -709 -437 -289
-411 -248 -983 96 -1345 232 -244 541 -356 888 -322 72 8 214 43 228 57 7 7
11 156 8 299 l-1 34 -32 -20 c-37 -23 -134 -61 -173 -68 -14 -2 -37 -6 -52 -9
-45 -9 -174 -6 -228 4 -278 53 -494 259 -577 548 -18 63 -22 103 -22 208 0
151 21 243 82 362 49 94 64 114 148 199 156 157 367 229 589 200 33 -5 60 -7
60 -6 0 4 114 -43 158 -66 l47 -24 1 42 c1 43 1 147 0 244 l-1 51 -77 20 c-43
12 -96 24 -118 28 -38 7 -251 15 -257 10z"/>
<path d="M3730 5133 c-201 -38 -381 -209 -434 -413 -14 -54 -15 -210 -2 -275
6 -28 2 -33 -69 -85 -233 -168 -337 -352 -337 -595 0 -341 223 -575 593 -624
75 -10 254 -8 314 4 202 39 380 132 512 267 151 153 207 280 205 466 0 91 -4
111 -27 157 -16 33 -45 70 -76 96 l-49 41 124 73 c264 153 351 238 419 405 27
67 33 202 12 272 -36 126 -141 210 -268 214 -97 4 -150 -17 -218 -86 -43 -44
-59 -69 -71 -112 -31 -109 -1 -211 73 -249 85 -43 189 15 189 105 0 27 -28 47
-82 60 -82 19 -75 123 14 189 42 31 120 26 172 -10 92 -65 114 -181 57 -298
-66 -134 -215 -242 -506 -365 -315 -133 -417 -205 -476 -335 -64 -141 -5 -322
127 -385 76 -37 174 -12 209 54 38 69 -6 114 -55 58 -34 -39 -69 -48 -109 -28
-83 43 -85 189 -5 270 65 65 165 84 246 48 92 -41 148 -127 150 -234 5 -249
-212 -491 -492 -548 -149 -31 -292 -11 -423 57 -66 35 -169 125 -219 193 -137
184 -155 472 -40 655 31 49 121 145 136 145 6 -1 26 -24 44 -53 70 -109 190
-161 312 -133 132 29 186 176 107 290 -58 83 -243 103 -388 42 -14 -6 -16 3
-16 64 -1 143 47 253 157 358 84 80 225 114 319 76 79 -31 99 -88 61 -173 -20
-44 -19 -80 3 -82 7 0 20 -2 30 -4 29 -5 84 14 117 42 71 60 93 172 50 255
-25 48 -49 70 -111 103 -41 21 -69 27 -179 39 -14 2 -59 -4 -100 -11z m-112
-722 c45 -3 68 -87 36 -136 -48 -74 -167 -45 -222 54 l-24 41 39 17 c48 21
101 32 133 28 14 -2 31 -4 38 -4z"/>
<path d="M708 2933 c-2 -16 -2 -53 0 -83 l4 -56 2789 0 2789 1 1 27 c1 16 1
39 1 53 0 14 0 39 -1 55 l-1 30 -2789 0 -2790 0 -3 -27z"/>
<path d="M1041 2640 c-3 -21 -85 -464 -96 -520 -3 -14 -12 -63 -20 -110 -22
-123 -25 -141 -35 -185 -17 -72 -17 -72 54 -74 l64 -2 11 53 c5 29 13 73 17
98 4 25 8 47 9 50 0 3 11 67 25 143 13 75 26 137 29 137 4 0 58 -110 121 -245
63 -134 117 -241 120 -237 4 4 58 117 120 251 l114 244 18 -89 c10 -49 20
-105 23 -124 3 -19 12 -73 20 -120 20 -112 23 -133 24 -147 1 -9 21 -13 66
-13 78 0 75 -11 40 170 -5 28 -45 241 -51 280 -3 14 -11 57 -19 95 -7 39 -23
123 -35 188 -12 65 -25 128 -29 140 l-8 22 -7 -23 c-4 -12 -44 -97 -88 -190
-44 -92 -104 -218 -133 -279 -30 -62 -56 -113 -59 -113 -2 0 -21 35 -41 78
-135 285 -253 529 -254 522z"/>
<path d="M2231 2609 c-17 -46 -26 -67 -44 -109 -56 -132 -307 -740 -307 -744
0 -3 29 -6 65 -6 l65 0 17 38 c8 20 19 46 24 57 4 11 18 44 30 73 l21 52 147
0 146 0 39 -98 c21 -53 44 -103 51 -110 8 -9 32 -12 73 -10 l61 3 -179 430
c-98 237 -183 436 -187 444 -7 11 -12 6 -22 -20z m69 -394 c23 -60 42 -114 43
-119 1 -5 -42 -10 -95 -11 -54 0 -98 1 -98 4 0 18 96 249 101 243 4 -4 25 -56
49 -117z"/>
<path d="M4600 2614 c-6 -16 -17 -42 -25 -59 -14 -32 -265 -636 -308 -742
l-25 -61 68 -1 68 0 44 109 43 110 148 -2 149 -3 43 -105 42 -105 67 -3 c36
-2 66 1 66 5 0 4 -18 51 -40 103 -21 52 -103 248 -181 435 -77 187 -143 342
-145 344 -2 2 -8 -9 -14 -25z m64 -398 c25 -65 46 -121 46 -125 0 -5 -188 -7
-197 -2 -1 1 18 49 41 109 24 59 47 116 50 126 4 10 8 17 10 15 3 -2 25 -57
50 -123z"/>
<path d="M2500 2626 c0 -3 17 -36 130 -246 156 -291 138 -240 139 -407 0 -82
0 -165 0 -186 l1 -37 60 1 c33 1 61 4 61 8 1 3 2 87 3 186 l2 180 53 100 c30
55 61 114 71 130 32 56 140 263 140 269 0 3 -30 6 -67 6 l-68 0 -94 -185 c-52
-102 -97 -185 -100 -185 -3 0 -48 83 -99 185 l-92 185 -70 0 c-38 0 -70 -2
-70 -4z"/>
<path d="M3597 2203 c1 -236 2 -434 2 -440 1 -10 49 -12 196 -12 l196 1 60 30
c92 46 141 125 142 229 0 66 -29 136 -74 173 -16 14 -29 27 -29 29 0 3 15 28
34 56 65 96 56 207 -24 288 -62 64 -102 73 -319 73 l-186 0 2 -427z m373 298
c82 -41 87 -163 8 -211 -28 -17 -50 -20 -143 -20 l-110 0 2 117 c1 65 2 121 2
125 2 11 215 2 241 -11z m23 -370 c93 -57 90 -183 -6 -246 -40 -25 -256 -30
-258 -6 -1 23 -1 221 0 252 l1 26 114 -2 c97 -2 120 -6 149 -24z"/>
<path d="M5100 2190 l0 -440 233 0 c128 1 237 4 243 8 6 4 11 32 10 63 l-1 57
-171 0 c-94 -1 -175 2 -180 5 -5 3 -9 171 -8 376 l0 371 -63 0 -63 0 0 -440z"/>
<path d="M5710 2190 l0 -440 243 2 242 3 0 60 0 60 -166 1 c-92 1 -173 3 -180
6 -12 5 -14 73 -13 377 l1 371 -63 0 -64 0 0 -440z"/>
<path d="M710 1507 l0 -84 2790 0 c2325 0 2790 2 2791 14 0 7 0 38 0 68 0 30
0 62 0 70 -1 13 -318 15 -2791 15 l-2790 0 0 -83z"/>
<path d="M710 1177 l0 -82 2790 0 2790 0 1 37 c1 21 1 49 1 63 0 14 0 34 -1
45 -1 20 -8 20 -2791 20 l-2790 0 0 -83z"/>
</g>
</svg>
